<svg width="36" height="36" viewBox="0 0 36 36" fill="none" xmlns="http://www.w3.org/2000/svg">
<circle cx="18" cy="18" r="18" fill="#BE123C"/>
<path fill-rule="evenodd" clip-rule="evenodd" d="M9.6 14.4C9.6 13.7373 10.1373 13.2 10.8 13.2H25.2C25.8628 13.2 26.4 13.7373 26.4 14.4C26.4 15.0628 25.8628 15.6 25.2 15.6H10.8C10.1373 15.6 9.6 15.0628 9.6 14.4Z" fill="white"/>
<path fill-rule="evenodd" clip-rule="evenodd" d="M9.6 21.6C9.6 20.9373 10.1373 20.4 10.8 20.4H25.2C25.8628 20.4 26.4 20.9373 26.4 21.6C26.4 22.2628 25.8628 22.8 25.2 22.8H10.8C10.1373 22.8 9.6 22.2628 9.6 21.6Z" fill="white"/>
</svg>
